<?xml version="1.0" encoding="utf-8"?>
<!-- Generator: Adobe Illustrator 23.1.1, SVG Export Plug-In . SVG Version: 6.00 Build 0)  -->
<svg version="1.1" id="Layer_1" xmlns="http://www.w3.org/2000/svg" xmlns:xlink="http://www.w3.org/1999/xlink" x="0px" y="0px"
	 viewBox="0 0 148.2 55.3" style="enable-background:new 0 0 148.2 55.3;" xml:space="preserve">
<style type="text/css">
	.st0{clip-path:url(#SVGID_2_);fill:#0F79BF;}
	.st1{fill:#0F79BF;}
	.st2{fill:#464238;}
	.st3{fill:none;stroke:#231F20;stroke-width:0.692;}
</style>
<g>
	<g>
		<g>
			<defs>
				<rect id="SVGID_1_" x="9.1" y="-0.2" width="130.1" height="34"/>
			</defs>
			<clipPath id="SVGID_2_">
				<use xlink:href="#SVGID_1_"  style="overflow:visible;"/>
			</clipPath>
			<path class="st0" d="M14.7,4.1c-0.1,0-0.2,0.2-0.2,0.5v16.2c0,3,0.2,3.9,2.2,3.9c0.2,0,0.4,0,0.7,0c0.7,0,1,0.2,1,0.6
				c0,0.5-0.4,0.7-1.3,0.7c-1,0-2.2-0.2-3.5-0.2c-1.2,0-2.3,0.2-3.2,0.2s-1.3-0.2-1.3-0.7c0-0.4,0.3-0.6,0.9-0.6h0.4
				c2.1,0,2.3-1.1,2.3-4.4V3c0-1.4-0.1-1.7-1.2-1.9c-1.4-0.2-2.2,0-2.2-0.7C9.3,0,9.5-0.2,10-0.2h6.7c0.2,0,0.4,0,0.7,0.4l13.6,18
				h0.1c0.1,0,0.2-0.2,0.2-0.5v-13c0-1.2,0-2.2-0.2-2.8c-0.2-0.9-1.1-1-2.8-1c-0.5,0-0.9-0.2-0.9-0.6s0.4-0.6,1.3-0.6
				c1,0,2.2,0.1,3.5,0.1c1.3,0,2.4-0.2,3.1-0.2s1.1,0.3,1.1,0.7s-0.2,0.5-0.7,0.5h-0.6c-1.9,0-2,1.2-2,4.2v20.9c0,0.5-0.4,1-0.8,1
				c-0.3,0-0.6-0.2-0.9-0.7l-16.6-22C14.8,4.1,14.7,4.1,14.7,4.1"/>
		</g>
	</g>
</g>
<path class="st1" d="M41.7,29.6c-2.4,2.8-4.8,4.2-6.9,4.2c-1.8,0-2.9-1-2.9-2.7c0-1.2,1-2.2,2.3-2.2c0.6,0,1.2,0.3,1.7,1
	c0.6,0.7,0.9,1.6,1.8,1.6c1.7,0,2.8-2.6,2.8-7.7V3.1c0-1.5-0.2-1.7-1.3-1.9C37.9,1,37,1.2,37,0.5c0-0.3,0.3-0.6,0.8-0.6
	s2.1,0.3,5,0.3s4.6-0.3,5.1-0.3s0.8,0.2,0.8,0.6c0,0.7-0.8,0.5-2.2,0.7c-1.2,0.2-1.3,0.5-1.3,1.9v17.5C45.1,24.2,44,26.9,41.7,29.6"
	/>
<path class="st1" d="M53.9,5.2c-0.2,0-0.2,0.2-0.3,0.8l-0.8,12.7c-0.1,1.2-0.1,1.9-0.1,2.3c0,2.7,0.4,3.7,2.3,3.7c0.2,0,0.4,0,0.7,0
	c0.7,0,1,0.2,1,0.6S56.3,26,55.4,26c-0.9,0-2-0.1-3.5-0.1c-1.3,0-2.4,0.1-3.2,0.1s-1.2-0.2-1.2-0.7c0-0.4,0.2-0.6,0.8-0.6
	c0.4,0,0.7,0,0.9,0c1.8,0,1.9-1.8,2.2-6.6l0.8-14.2V3.1c0-1.4-0.2-1.7-1.3-1.9c-1.3-0.2-2.1,0-2.1-0.7C48.8,0.1,49,0,49.5,0h6.7
	c0.4,0,0.6,0,0.7,0.4l6.7,16.8c0.1,0.3,0.3,0.5,0.4,0.5c0.2,0,0.3-0.1,0.4-0.5l6.7-16.5C71.3,0.2,71.4,0,71.9,0h6.6
	c0.5,0,0.7,0.2,0.7,0.5c0,0.9-1.2,0.4-2.5,0.8C76,1.5,75.8,1.8,75.8,3c0,0.3,0,0.6,0,1l0.5,18.2c0.1,1.7,0.2,2.2,1.7,2.5
	c1,0.2,1.9-0.1,1.9,0.7c0,0.4-0.4,0.7-1.1,0.7c-1,0-2.5-0.2-4.7-0.2c-2.3,0-3.9,0.2-4.9,0.2c-0.7,0-1.1-0.2-1.1-0.7
	c0-0.4,0.3-0.6,0.8-0.6c2.4,0,2.7-0.5,2.7-2.5v-1L71.2,6c0-0.3-0.1-0.5-0.2-0.5s-0.2,0.2-0.3,0.4l-7.5,18.8
	c-0.2,0.4-0.5,0.6-0.8,0.6c-0.4,0-0.7-0.2-0.9-0.5L53.9,5.9C54.2,5.4,54.1,5.2,53.9,5.2"/>
<path class="st2" d="M85.3,10.3c0.3,0.1,0.6,0.1,0.6,0.3c0,0.1-0.1,0.2-0.3,0.2c-0.1,0-0.6,0-1.3,0c-0.6,0-1.1,0-1.4,0
	s-0.5,0-0.5-0.2s0.2-0.1,0.5-0.2c0.5-0.1,0.5-0.4,0.5-0.9V1.8c0-0.4,0-0.6-0.3-0.7s-0.6,0-0.6-0.3c0-0.1,0.1-0.2,0.3-0.2
	c0.1,0,0.6,0,1.4,0c0.5,0,0.9,0,1.4,0c0.3,0,0.4,0.1,0.4,0.2C86,1,85.8,1,85.5,1C85,1.1,85,1.2,85,1.7v7.8C85,10,85,10.3,85.3,10.3"
	/>
<path class="st2" d="M87.6,4.9c0-0.3,0-0.4-0.3-0.5c-0.2,0-0.4,0-0.4-0.1c0-0.2,0.3-0.3,0.8-0.5c0.6-0.3,0.9-0.6,1-0.6
	s0.1,0.1,0.1,0.2V4c0,0.1,0,0.2,0,0.2s0,0.1,0.1,0.1s0.2-0.2,0.5-0.4c0.5-0.4,1-0.7,1.7-0.7c1.5,0,2,0.9,2,2.7v3.6
	c0,0.5,0,0.7,0.3,0.9c0.2,0.1,0.6,0,0.6,0.2s-0.2,0.2-0.6,0.2c-0.2,0-0.5,0-0.9,0c-0.3,0-0.5,0-0.6,0s-0.3,0-0.6,0
	c-0.2,0-0.3,0-0.3-0.1c0-0.3,0.3-0.2,0.4-0.3c0.2-0.1,0.3-0.4,0.3-0.8V5.7c0-1.1-0.3-1.7-1.2-1.7C89.4,4,89,4.6,89,5.9v3.9
	c0,0.4,0.1,0.6,0.3,0.7c0.2,0,0.4,0,0.4,0.2c0,0.1-0.1,0.2-0.2,0.2s-0.4,0-1.1,0s-1.1,0-1.2,0c-0.2,0-0.3-0.1-0.3-0.2
	c0-0.2,0.1-0.2,0.4-0.3c0.2-0.1,0.3-0.3,0.3-0.7L87.6,4.9"/>
<path class="st2" d="M98.9,4.7c0,0.4,0,0.5-0.2,0.5c-0.3,0-0.3-0.3-0.5-0.7c-0.3-0.6-0.6-0.9-1.1-0.9c-0.7,0-1.2,0.5-1.2,1.1
	c0,0.2,0,0.4,0.2,0.6c0.4,0.6,1.3,0.8,2.2,1.4c0.7,0.5,1.1,1.2,1.1,2c0,1.4-1.1,2.4-2.8,2.4c-1.4,0-1.7-0.2-1.7-0.9V9.1
	c0-0.4,0-0.6,0.2-0.6s0.3,0.1,0.4,0.4c0.4,1,0.6,1.7,1.5,1.7c0.7,0,1.2-0.5,1.2-1.3c0-0.5-0.2-1-0.6-1.3c-0.5-0.4-1.3-0.7-2.1-1.4
	c-0.4-0.3-0.6-0.8-0.6-1.3c0-1.2,1-2.1,2.6-2.1c1.1,0,1.6,0.1,1.6,0.5v1"/>
<path class="st2" d="M101,4.7c0-0.5,0-0.7-0.3-0.9c-0.2-0.1-0.6,0-0.6-0.2s0.2-0.2,0.6-0.2c0.1,0,0.3,0,0.5,0c0.1,0,0.3,0,0.7,0
	c0.3,0,0.4,0.1,0.4,0.4v4.9c0,1.1,0.3,1.7,1.2,1.7c1.1,0,1.5-0.6,1.5-1.9v-4c0-0.4-0.1-0.6-0.3-0.7c-0.2,0-0.4,0-0.4-0.2
	c0-0.1,0.1-0.2,0.2-0.2s0.3,0,0.4,0c0.3,0,0.6,0,1,0s0.5,0.1,0.5,0.4v5.5c0,0.3,0,0.4,0.3,0.5c0.2,0,0.4,0,0.4,0.1
	c0,0.2-0.3,0.3-0.8,0.5c-0.6,0.3-0.9,0.6-1,0.6s-0.1-0.1-0.1-0.2V10l-0.1-0.1c-0.1,0-0.2,0.2-0.5,0.4c-0.5,0.4-1,0.7-1.7,0.7
	c-1.5,0-2-0.9-2-2.6V4.7"/>
<path class="st2" d="M108.9,4.9c0-0.3,0-0.4-0.3-0.5c-0.2,0-0.4,0-0.4-0.1c0-0.2,0.3-0.3,0.8-0.5c0.6-0.3,0.9-0.6,1-0.6
	s0.1,0.1,0.1,0.2v1.1l0.1,0.1c0.1,0,0.2-0.2,0.5-0.6c0.4-0.5,0.8-0.7,1.2-0.7c0.6,0,1,0.4,1,1.1c0,0.6-0.3,0.9-0.7,0.9
	s-0.6-0.2-0.7-0.6c0-0.2,0-0.4-0.2-0.4c-0.6,0-1,0.9-1,2.4v3.1c0,0.4,0.1,0.6,0.3,0.7c0.2,0,0.4,0,0.4,0.2c0,0.1-0.1,0.2-0.2,0.2
	s-0.4,0-1.1,0s-1.1,0-1.2,0c-0.2,0-0.3-0.1-0.3-0.2c0-0.2,0.2-0.2,0.4-0.3c0.2-0.1,0.3-0.3,0.3-0.7L108.9,4.9"/>
<path class="st2" d="M116.9,4.8c0-0.8-0.1-1.2-0.6-1.2s-1.1,0.4-1.2,1.2c-0.2,0.7-0.2,1.3-1,1.3c-0.3,0-0.4-0.2-0.4-0.5
	c0-0.4,0.2-0.9,0.8-1.4c0.6-0.6,1.4-0.9,2.3-0.9c1.4,0,1.6,0.5,1.6,1.7v3.9c0,0.8,0,1.1,0.5,1.1c0.4,0,0.4-0.5,0.6-0.5
	c0.1,0,0.1,0.1,0.1,0.2c0,0.6-0.6,1.3-1.4,1.3c-0.4,0-0.8-0.2-0.9-0.4c-0.2-0.5-0.3-0.7-0.4-0.7c-0.2,0-0.3,0.3-0.7,0.6
	c-0.4,0.4-0.8,0.6-1.3,0.6c-0.7,0-1.2-0.5-1.2-1.4c0-1.3,1-2,2.7-3.3c0.5-0.4,0.5-0.5,0.5-1.2V4.8 M116.7,6.7
	c-0.2,0-0.5,0.3-0.9,0.8C115.3,8,115,8.6,115,9.1s0.3,0.9,0.8,0.9c0.7,0,1.1-0.7,1.1-2.1V7.5C116.9,6.9,116.9,6.7,116.7,6.7"/>
<path class="st2" d="M120.6,4.9c0-0.3,0-0.4-0.3-0.5c-0.2,0-0.4,0-0.4-0.1c0-0.2,0.3-0.3,0.8-0.5c0.6-0.3,0.9-0.6,1-0.6
	s0.1,0.1,0.1,0.2V4c0,0.1,0,0.2,0,0.2s0,0.1,0.1,0.1s0.2-0.2,0.5-0.4c0.5-0.4,1-0.7,1.7-0.7c1.5,0,2,0.9,2,2.7v3.6
	c0,0.5,0,0.7,0.3,0.9c0.2,0.1,0.6,0,0.6,0.2s-0.2,0.2-0.6,0.2c-0.2,0-0.5,0-0.9,0c-0.3,0-0.5,0-0.6,0s-0.3,0-0.6,0
	c-0.2,0-0.3,0-0.3-0.1c0-0.3,0.3-0.2,0.4-0.3c0.2-0.1,0.3-0.4,0.3-0.8V5.7c0-1.1-0.3-1.7-1.2-1.7c-1.1,0-1.5,0.6-1.5,1.9v3.9
	c0,0.4,0.1,0.6,0.3,0.7c0.2,0,0.4,0,0.4,0.2c0,0.1-0.1,0.2-0.2,0.2s-0.4,0-1.1,0s-1.1,0-1.2,0c-0.2,0-0.3-0.1-0.3-0.2
	c0-0.2,0.1-0.2,0.4-0.3c0.2-0.1,0.3-0.3,0.3-0.7L120.6,4.9"/>
<path class="st2" d="M132.5,4.9c0,0.5,0,0.6-0.3,0.6s-0.5-0.2-0.7-0.7c-0.3-0.7-0.4-1.2-1-1.2s-1.3,1.2-1.3,2.8c0,2.2,1,3.6,1.9,3.6
	c0.4,0,0.7-0.2,1-0.6c0.2-0.3,0.3-0.7,0.5-0.7c0.1,0,0.2,0.1,0.2,0.2c0,0.2-0.1,0.5-0.3,0.8c-0.5,0.7-1.1,1.1-1.9,1.1
	c-1.6,0-2.9-1.7-2.9-3.9c0-2.3,1.4-3.9,3.2-3.9c0.8,0,1.3,0.2,1.5,0.3c0.1,0.1,0.1,0.3,0.1,0.6V4.9"/>
<path class="st2" d="M135.8,6.7c-0.5,0-0.5,0-0.5,0.5c0,1.9,0.8,3.1,2,3.1c0.5,0,1-0.2,1.3-0.6c0.3-0.3,0.3-0.7,0.5-0.7
	c0.1,0,0.2,0.1,0.2,0.2c0,0.7-1,1.9-2.5,1.9c-1.6,0-2.9-1.6-2.9-3.8c0-2.5,1.3-4.1,3.1-4.1c1.4,0,2.3,1,2.3,2.8c0,0.6,0,0.6-0.7,0.6
	h-2.8 M135.8,4.3c-0.4,0.6-0.5,1.3-0.5,1.6c0,0.3,0.2,0.4,0.7,0.4c1.6,0,1.9-0.1,1.9-1c0-1.1-0.4-1.7-1-1.7
	C136.4,3.6,136.1,3.8,135.8,4.3"/>
<path class="st2" d="M89,25c-0.4,0.6-1.4,1-2.4,1c-1.2,0-2.1-0.5-2.9-1.5s-1.2-2.3-1.2-3.9c0-3.2,1.8-5.3,4.2-5.3
	c1.2,0,2,0.3,2.2,0.5c0.1,0.1,0.1,0.3,0.1,0.6v1.2c0,0.3,0,0.4,0,0.4c0,0.2-0.1,0.3-0.3,0.3c-0.4,0-0.5-0.4-0.7-1
	c-0.4-1.1-0.7-1.5-1.5-1.5c-1.4,0-2.3,1.5-2.3,4.4c0,3.5,1,5.4,2.4,5.4c0.8,0,1-0.4,1-1.4V22c0-0.4,0-0.6-0.3-0.7
	c-0.4-0.1-0.7,0-0.7-0.3c0-0.2,0.2-0.2,0.6-0.2c0.2,0,0.6,0,1.2,0c0.7,0,1.1,0,1.2,0c0.2,0,0.3,0.1,0.3,0.2c0,0.2-0.2,0.2-0.4,0.3
	c-0.3,0.1-0.4,0.2-0.4,0.7v2.3C89.2,24.6,89.1,24.9,89,25"/>
<path class="st2" d="M91.5,19.9c0-0.3,0-0.4-0.3-0.5c-0.2,0-0.4,0-0.4-0.1c0-0.2,0.3-0.3,0.8-0.5c0.6-0.3,0.9-0.6,1-0.6
	s0.1,0.1,0.1,0.2v1.1l0.1,0.1c0.1,0,0.2-0.2,0.5-0.6c0.4-0.5,0.8-0.7,1.2-0.7c0.6,0,1,0.4,1,1.1c0,0.6-0.3,0.9-0.7,0.9
	s-0.6-0.2-0.7-0.6c0-0.2,0-0.4-0.2-0.4c-0.6,0-1,0.9-1,2.4v3.1c0,0.4,0.1,0.6,0.3,0.7c0.2,0,0.4,0,0.4,0.2c0,0.1-0.1,0.2-0.2,0.2
	s-0.4,0-1.1,0s-1.1,0-1.2,0c-0.2,0-0.3-0.1-0.3-0.2c0-0.2,0.2-0.2,0.4-0.3s0.3-0.3,0.3-0.7L91.5,19.9"/>
<path class="st2" d="M99.1,18.2c1.6,0,3,1.6,3,3.9c0,1.1-0.3,2.1-0.9,2.8c-0.6,0.7-1.3,1.1-2,1.1c-0.6,0-1.4-0.3-2-1
	c-0.7-0.7-1.1-1.7-1.1-3C96.1,19.9,97.5,18.2,99.1,18.2 M100.6,22.2c0-2.3-0.7-3.6-1.5-3.6c-0.9,0-1.5,1.3-1.5,3.5s0.7,3.5,1.5,3.5
	C100,25.6,100.6,24.3,100.6,22.2"/>
<path class="st2" d="M103.7,19.7c0-0.5,0-0.7-0.3-0.9c-0.2-0.1-0.6,0-0.6-0.2s0.2-0.2,0.6-0.2c0.1,0,0.3,0,0.5,0c0.1,0,0.3,0,0.7,0
	c0.3,0,0.4,0.1,0.4,0.4v4.9c0,1.1,0.3,1.7,1.2,1.7c1.1,0,1.5-0.6,1.5-1.9v-4c0-0.4-0.1-0.6-0.3-0.7c-0.2,0-0.4,0-0.4-0.2
	c0-0.1,0.1-0.2,0.2-0.2s0.3,0,0.4,0c0.3,0,0.6,0,1,0s0.5,0.1,0.5,0.4v5.5c0,0.3,0,0.4,0.3,0.5c0.2,0,0.4,0,0.4,0.1
	c0,0.2-0.3,0.3-0.8,0.5c-0.6,0.3-0.9,0.6-1,0.6s-0.1-0.1-0.1-0.2V25l-0.1-0.1c-0.1,0-0.2,0.2-0.5,0.4c-0.5,0.4-1,0.7-1.7,0.7
	c-1.5,0-2-0.9-2-2.6v-3.7"/>
<path class="st2" d="M113.3,29c0.5,0.1,0.7,0,0.7,0.2c0,0.1-0.1,0.2-0.2,0.2s-0.6,0-1.5,0c-0.8,0-1.2,0-1.3,0
	c-0.2,0-0.3-0.1-0.3-0.2s0.1-0.2,0.3-0.2h0.1c0.4,0,0.5-0.3,0.5-0.8V20c0-0.3,0-0.4-0.3-0.5c-0.3,0-0.6,0-0.6-0.2s0.3-0.2,0.8-0.4
	c0.7-0.3,1-0.7,1.2-0.7c0.1,0,0.1,0.1,0.1,0.2v0.5c0,0.2,0,0.3,0.1,0.3s0.2-0.1,0.5-0.4c0.4-0.4,0.8-0.6,1.3-0.6
	c1.3,0,2.5,1.5,2.5,3.7c0,2.4-1.4,4-2.9,4c-0.5,0-1-0.1-1.5-0.5V28C112.8,28.8,112.8,29,113.3,29 M112.8,23.2c0,1.6,0.3,2.4,1.2,2.4
	c1,0,1.6-1.1,1.6-3.3c0-2.1-0.7-3.2-1.7-3.2c-0.9,0-1.1,0.6-1.1,1.8V23.2z"/>
<g>
	<path class="st2" d="M12.5,48.6H13l1.3-3.7h-0.6v-0.8h3v0.8h-0.5l1.3,3.7H18v0.8h-2.1v-0.8h0.6l-0.3-0.9h-2l-0.3,0.9h0.7v0.8h-2.1
		C12.5,49.4,12.5,48.6,12.5,48.6z M16,47l-0.8-2.1L14.4,47H16z"/>
	<path class="st2" d="M19.6,47.5v-2.6H19v-0.8h2.2v0.8h-0.6v2.5c0,0.8,0.4,1.3,1.1,1.3s1.1-0.4,1.1-1.2v-2.6h-0.6v-0.8h2.1v0.8h-0.6
		v2.6c0,1.4-0.8,2.1-2,2.1C20.4,49.5,19.6,48.9,19.6,47.5z"/>
	<path class="st2" d="M26.8,48.6h0.7v-3.7h-1v0.8h-0.9v-1.6h4.7v1.6h-0.9v-0.8h-1v3.7h0.7v0.8h-2.3L26.8,48.6L26.8,48.6z"/>
	<path class="st2" d="M31.7,46.7c0-1.6,1.1-2.8,2.8-2.8c1.6,0,2.7,1.2,2.7,2.8s-1.1,2.8-2.8,2.8C32.8,49.5,31.7,48.3,31.7,46.7z
		 M36.2,46.7c0-1.1-0.8-1.9-1.8-1.9s-1.8,0.8-1.8,1.9c0,1.1,0.8,1.9,1.8,1.9C35.5,48.7,36.2,47.9,36.2,46.7z"/>
	<path class="st2" d="M44.4,43.5h0.8v7.6h-0.8V43.5z"/>
	<path class="st2" d="M52.2,48.6h0.6v-3.7h-0.6v-0.8h2.2v0.8h-0.7v1.4h2.5v-1.4h-0.7v-0.8h2.2v0.8h-0.5v3.7h0.6v0.8h-2.2v-0.8h0.7
		v-1.5h-2.5v1.5h0.7v0.8h-2.3V48.6z"/>
	<path class="st2" d="M59.3,46.7c0-1.6,1.1-2.8,2.8-2.8c1.6,0,2.7,1.2,2.7,2.8s-1.1,2.8-2.8,2.8C60.4,49.5,59.3,48.3,59.3,46.7z
		 M63.8,46.7c0-1.1-0.8-1.9-1.8-1.9s-1.8,0.8-1.8,1.9c0,1.1,0.8,1.9,1.8,1.9C63.1,48.7,63.8,47.9,63.8,46.7z"/>
	<path class="st2" d="M66.2,48.6h0.6l0.2-3.7h-0.7v-0.8h1.5l1.6,3l1.6-3h1.5v0.8h-0.7l0.2,3.7h0.6v0.8h-2.2v-0.8H71l-0.1-2.8
		l-1.5,2.7h-0.1l-1.5-2.7l-0.1,2.8h0.6v0.8h-2.1C66.2,49.4,66.2,48.6,66.2,48.6z"/>
	<path class="st2" d="M74.2,48.6h0.6v-3.7h-0.6v-0.8h4v1.5h-0.9v-0.7h-1.6v1.4h1.6v0.8h-1.6v1.5h1.6v-0.7h0.9v1.5h-4V48.6z"/>
	<path class="st2" d="M85.4,43.5h0.8v7.6h-0.8V43.5z"/>
	<path class="st2" d="M93.3,48.6h0.6v-3.7h-0.6v-0.8h2.1c1.2,0,2.1,0.5,2.1,1.6c0,0.7-0.4,1.2-1,1.5l0.8,1.5h0.6v0.8h-1.2l-1.1-2
		c-0.1,0-0.2,0-0.3,0c-0.2,0-0.3,0-0.4,0v1.2h0.7v0.8h-2.2L93.3,48.6C93.4,48.6,93.3,48.6,93.3,48.6z M96.6,45.7
		c0-0.6-0.5-0.8-1.2-0.8h-0.5v1.7c0.1,0,0.2,0,0.5,0C96.1,46.6,96.6,46.3,96.6,45.7z"/>
	<path class="st2" d="M99.5,48.6h0.6v-3.7h-0.6v-0.8h4v1.5h-0.9v-0.7H101v1.4h1.6v0.8H101v1.5h1.6v-0.7h0.9v1.5h-4V48.6z"/>
	<path class="st2" d="M106.6,45.7v2.9h0.7v0.8h-2.2v-0.8h0.6v-3.7h-0.6v-0.8h1.4l2.6,3.4V45h-0.7v-0.8h2.2V45H110v4.6h-0.5
		L106.6,45.7z"/>
	<path class="st2" d="M113.3,48.6h0.7v-3.7h-1v0.8h-0.9v-1.6h4.7v1.6h-0.9v-0.8h-1v3.7h0.7v0.8h-2.3L113.3,48.6L113.3,48.6z"/>
	<path class="st2" d="M118.2,48.6h0.6v-3.7h-0.6v-0.8h4v1.5h-0.9v-0.7h-1.6v1.4h1.6v0.8h-1.6v1.5h1.6v-0.7h0.9v1.5h-4V48.6z"/>
	<path class="st2" d="M123.9,48.6h0.6v-3.7h-0.6v-0.8h2.1c1.2,0,2.1,0.5,2.1,1.6c0,0.7-0.4,1.2-1,1.5l0.8,1.5h0.6v0.8h-1.3l-1.1-2
		c-0.1,0-0.2,0-0.3,0c-0.2,0-0.3,0-0.4,0v1.2h0.7v0.8h-2.2C123.9,49.5,123.9,48.6,123.9,48.6z M127.1,45.7c0-0.6-0.5-0.8-1.2-0.8
		h-0.5v1.7c0.1,0,0.2,0,0.5,0C126.6,46.6,127.1,46.3,127.1,45.7z"/>
	<path class="st2" d="M130,48.3c0-0.4,0.2-0.6,0.6-0.6c0.4,0,0.6,0.3,0.6,0.5c0,0.1,0,0.2-0.1,0.3c0.2,0.1,0.5,0.2,0.8,0.2
		c0.6,0,1-0.3,1-0.7s-0.4-0.7-1-0.8c-1-0.4-1.7-0.7-1.7-1.7c0-0.9,0.7-1.5,1.8-1.5c1,0,1.8,0.5,1.8,1.2c0,0.4-0.2,0.6-0.5,0.6
		c-0.4,0-0.6-0.3-0.6-0.5c0-0.1,0-0.2,0.1-0.3c-0.1-0.1-0.4-0.2-0.7-0.2c-0.5,0-0.8,0.3-0.8,0.7s0.4,0.6,1,0.8
		c1,0.3,1.7,0.7,1.7,1.7s-0.8,1.6-1.9,1.6C130.8,49.5,130,48.9,130,48.3z"/>
</g>
<path class="st3" d="M0,38.4h148.2"/>
</svg>
